<svg width="25" height="25" viewBox="0 0 25 25" fill="none" xmlns="http://www.w3.org/2000/svg">
<g clip-path="url(#clip0_134_2324)">
<path d="M18.41 0H6.59C4.84222 0 3.16603 0.694302 1.93017 1.93017C0.694302 3.16603 0 4.84222 0 6.59L0 18.41C0 20.1578 0.694302 21.834 1.93017 23.0698C3.16603 24.3057 4.84222 25 6.59 25H18.41C20.157 24.9974 21.8316 24.3022 23.0669 23.0669C24.3022 21.8316 24.9974 20.157 25 18.41V6.59C25 4.84222 24.3057 3.16603 23.0698 1.93017C21.834 0.694302 20.1578 0 18.41 0V0ZM13 23.71V13.19H11.44V11.36H12.98V8.45C12.9648 7.81336 13.1857 7.19361 13.6 6.71C13.9388 6.39869 14.3387 6.16142 14.7744 6.01335C15.21 5.86527 15.6717 5.80964 16.13 5.85C16.9143 5.8345 17.6946 5.9668 18.43 6.24V7.48H17.12C16.8783 7.47258 16.6377 7.51592 16.4138 7.60721C16.1899 7.69849 15.9876 7.83571 15.82 8.01C15.5211 8.35302 15.3606 8.7951 15.37 9.25V11.41H18.23L18.08 13.11H15.34L15.4 23.7L13 23.71ZM23.71 18.41C23.71 19.8156 23.1516 21.1637 22.1577 22.1577C21.1637 23.1516 19.8156 23.71 18.41 23.71H16.69L16.63 14.4H19.25L19.63 10.13H16.63V9.22C16.6253 9.09723 16.6643 8.97678 16.74 8.88C16.8416 8.79877 16.9704 8.75942 17.1 8.77H19.73V5.47L19.42 5.28C18.4066 4.7625 17.277 4.51455 16.14 4.56C15.5104 4.51829 14.8791 4.60885 14.2866 4.82586C13.6942 5.04287 13.1537 5.38151 12.7 5.82C12.0357 6.5523 11.6778 7.51157 11.7 8.5V10.07H10.15V14.51H11.72V23.74H6.59C5.18435 23.74 3.83628 23.1816 2.84233 22.1877C1.84839 21.1937 1.29 19.8456 1.29 18.44V6.59C1.29 5.18435 1.84839 3.83628 2.84233 2.84233C3.83628 1.84839 5.18435 1.29 6.59 1.29H18.41C19.8156 1.29 21.1637 1.84839 22.1577 2.84233C23.1516 3.83628 23.71 5.18435 23.71 6.59V18.41Z" fill="white"/>
</g>
<defs>
<clipPath id="clip0_134_2324">
<rect width="25" height="25" fill="white"/>
</clipPath>
</defs>
</svg>
