<svg width="25" height="25" viewBox="0 0 25 25" fill="none" xmlns="http://www.w3.org/2000/svg">
<g clip-path="url(#clip0_134_2328)">
<path d="M18.42 25H6.59C4.84395 25 3.16928 24.3071 1.9337 23.0734C0.698121 21.8397 0.00264954 20.166 0 18.42L0 6.59C0 4.84222 0.694302 3.16603 1.93017 1.93017C3.16603 0.694302 4.84222 0 6.59 0L18.42 0C20.166 0.00264954 21.8397 0.698121 23.0734 1.9337C24.3071 3.16928 25 4.84395 25 6.59V18.42C24.9974 20.1643 24.3033 21.8364 23.0698 23.0698C21.8364 24.3033 20.1643 24.9974 18.42 25ZM6.59 1.29C5.18435 1.29 3.83628 1.84839 2.84233 2.84233C1.84839 3.83628 1.29 5.18435 1.29 6.59V18.42C1.29 19.8256 1.84839 21.1737 2.84233 22.1677C3.83628 23.1616 5.18435 23.72 6.59 23.72H18.42C19.8256 23.72 21.1737 23.1616 22.1677 22.1677C23.1616 21.1737 23.72 19.8256 23.72 18.42V6.59C23.72 5.18435 23.1616 3.83628 22.1677 2.84233C21.1737 1.84839 19.8256 1.29 18.42 1.29H6.59Z" fill="white"/>
<path d="M12.5001 19.1401C11.1868 19.1401 9.90307 18.7507 8.81112 18.0211C7.71918 17.2915 6.86812 16.2544 6.36555 15.0411C5.86298 13.8278 5.73149 12.4927 5.9877 11.2047C6.2439 9.91668 6.8763 8.73354 7.80492 7.80492C8.73354 6.8763 9.91668 6.2439 11.2047 5.9877C12.4927 5.73149 13.8278 5.86298 15.0411 6.36555C16.2544 6.86812 17.2915 7.71918 18.0211 8.81112C18.7507 9.90307 19.1401 11.1868 19.1401 12.5001C19.1401 13.3721 18.9684 14.2355 18.6347 15.0411C18.301 15.8467 17.8119 16.5787 17.1953 17.1953C16.5787 17.8119 15.8467 18.301 15.0411 18.6347C14.2355 18.9684 13.3721 19.1401 12.5001 19.1401ZM12.5001 7.14011C11.442 7.14011 10.4076 7.45388 9.52781 8.04175C8.64801 8.62961 7.96228 9.46517 7.55735 10.4428C7.15243 11.4203 7.04648 12.496 7.25291 13.5338C7.45934 14.5716 7.96888 15.5249 8.71709 16.2731C9.4653 17.0213 10.4186 17.5309 11.4564 17.7373C12.4942 17.9437 13.5699 17.8378 14.5475 17.4329C15.5251 17.0279 16.3606 16.3422 16.9485 15.4624C17.5363 14.5826 17.8501 13.5482 17.8501 12.4901C17.8475 11.0729 17.2826 9.71471 16.2796 8.71355C15.2766 7.71239 13.9173 7.15011 12.5001 7.15011V7.14011Z" fill="white"/>
<path d="M19.1999 6.78001C19.7577 6.78001 20.2099 6.32782 20.2099 5.77001C20.2099 5.2122 19.7577 4.76001 19.1999 4.76001C18.6421 4.76001 18.1899 5.2122 18.1899 5.77001C18.1899 6.32782 18.6421 6.78001 19.1999 6.78001Z" fill="white"/>
</g>
<defs>
<clipPath id="clip0_134_2328">
<rect width="25" height="25" fill="white"/>
</clipPath>
</defs>
</svg>
