<svg width="26" height="19" viewBox="0 0 26 19" fill="none" xmlns="http://www.w3.org/2000/svg">
<g clip-path="url(#clip0_134_2320)">
<path d="M23.69 2.22992L23.38 2.35992C23.6039 2.00373 23.782 1.62071 23.91 1.21992L24.21 0.299923C24.2498 0.25351 24.2695 0.193194 24.2648 0.132245C24.2601 0.0712957 24.2314 0.0147052 24.185 -0.0250773C24.1386 -0.0648597 24.0783 -0.0845754 24.0173 -0.079887C23.9564 -0.0751986 23.8998 -0.0464902 23.86 -7.727e-05L23 0.529923C22.2882 0.954122 21.516 1.2677 20.71 1.45992C19.9967 0.801968 19.1073 0.36581 18.1504 0.204646C17.1934 0.0434811 16.2102 0.164275 15.3208 0.552295C14.4313 0.940315 13.6739 1.57879 13.1411 2.38985C12.6083 3.20091 12.323 4.1495 12.32 5.11992C12.32 5.22992 12.32 5.34992 12.32 5.45992C9.2452 5.09005 6.43247 3.54573 4.47 1.14992L3.93 0.479923L3.49 1.22992C3.05116 1.99002 2.82013 2.85224 2.82013 3.72992C2.82013 4.60761 3.05116 5.46983 3.49 6.22992L2.8 5.82992V6.82992C2.8 6.82992 2.8 6.82992 2.8 6.89992C2.79946 7.58888 2.9413 8.27051 3.21664 8.90206C3.49197 9.5336 3.89485 10.1014 4.4 10.5699L4 10.4999L4.31 11.4999C4.5455 12.2348 4.94792 12.9052 5.48573 13.4586C6.02354 14.0121 6.68215 14.4335 7.41 14.6899C6.2191 15.3386 4.88607 15.6821 3.53 15.6899C3.19578 15.6896 2.86186 15.6696 2.53 15.6299L0 15.2499L2.2 16.6599C4.30492 18.0153 6.75644 18.7341 9.26 18.7299C11.0978 18.7728 12.9226 18.4117 14.6055 17.6721C16.2885 16.9326 17.7886 15.8326 19 14.4499C21.146 12.01 22.3422 8.87921 22.37 5.62992C22.37 5.53992 22.37 5.44992 22.37 5.35992C23.1789 4.73344 23.8813 3.98041 24.45 3.12992L25.17 1.99992C25.1959 1.96209 25.2088 1.91681 25.2066 1.87099C25.2044 1.82517 25.1872 1.78133 25.1577 1.74618C25.1282 1.71104 25.0881 1.68651 25.0433 1.67635C24.9986 1.66619 24.9518 1.67096 24.91 1.68992L23.69 2.22992ZM21.39 4.56992L21.13 4.75992V5.08992C21.13 5.24992 21.13 5.42992 21.13 5.62992C21.1447 7.19674 20.8469 8.75077 20.2541 10.2012C19.6613 11.6516 18.7853 12.9693 17.6773 14.0772C16.5694 15.1852 15.2517 16.0612 13.8013 16.654C12.3508 17.2468 10.7968 17.5446 9.23 17.5299C7.75562 17.5286 6.29427 17.2539 4.92 16.7199C6.55331 16.4856 8.09552 15.8231 9.39 14.7999L10.72 13.7999L9 13.7299C8.37996 13.7165 7.77258 13.5518 7.2306 13.2503C6.68862 12.9489 6.22843 12.5196 5.89 11.9999C7.1492 12.0396 8.39697 11.7501 9.51 11.1599L7 10.6199C6.29493 10.4702 5.64658 10.1241 5.12988 9.62159C4.61318 9.11905 4.2492 8.48057 4.08 7.77992C5.17333 8.07885 6.31296 8.17043 7.44 8.04992L5.7 6.88992C5.0216 6.43586 4.50745 5.77541 4.23369 5.00635C3.95993 4.23729 3.9411 3.40052 4.18 2.61992C6.49017 5.05908 9.64572 6.52236 13 6.70992H13.79L13.65 5.99992C13.4618 5.1862 13.547 4.33314 13.8923 3.57266C14.2376 2.81218 14.8238 2.18665 15.5603 1.79279C16.2968 1.39892 17.1425 1.25868 17.9667 1.39373C18.791 1.52878 19.5477 1.93161 20.12 2.53992L20.35 2.77992L20.68 2.71992C21.0763 2.64183 21.4671 2.53828 21.85 2.40992C21.6254 2.63685 21.3734 2.83503 21.1 2.99992L19.59 3.90992C19.5448 3.93491 19.5097 3.97503 19.4911 4.02324C19.4725 4.07146 19.4714 4.12469 19.4881 4.1736C19.5049 4.22252 19.5382 4.26399 19.5825 4.29074C19.6267 4.3175 19.6789 4.32783 19.73 4.31992L21.48 4.10992L22.13 4.00992C21.894 4.21028 21.6469 4.39724 21.39 4.56992Z" fill="white"/>
</g>
<defs>
<clipPath id="clip0_134_2320">
<rect width="25.21" height="18.72" fill="white"/>
</clipPath>
</defs>
</svg>
