<svg width="25" height="25" viewBox="0 0 25 25" fill="none" xmlns="http://www.w3.org/2000/svg">
<g clip-path="url(#clip0_134_2334)">
<path d="M18.4 25H6.58001C5.7146 24.9987 4.85792 24.8269 4.05888 24.4945C3.25985 24.1622 2.53411 23.6756 1.9231 23.0628C1.31209 22.4499 0.827778 21.7227 0.497813 20.9227C0.167848 20.1226 -0.00130662 19.2654 7.59944e-06 18.4V6.58001C0.00265251 4.8357 0.69675 3.16358 1.93017 1.93017C3.16358 0.69675 4.8357 0.00265251 6.58001 7.59944e-06H18.4C19.2654 -0.00130662 20.1226 0.167848 20.9227 0.497813C21.7227 0.827778 22.4499 1.31209 23.0628 1.9231C23.6756 2.53411 24.1622 3.25985 24.4945 4.05888C24.8269 4.85792 24.9987 5.7146 25 6.58001V18.4C25.0013 19.2671 24.8315 20.1259 24.5003 20.9273C24.1691 21.7286 23.683 22.4567 23.0698 23.0698C22.4567 23.683 21.7286 24.1691 20.9273 24.5003C20.1259 24.8315 19.2671 25.0013 18.4 25ZM6.58001 1.29001C5.17782 1.29265 3.83383 1.85084 2.84233 2.84233C1.85084 3.83383 1.29265 5.17782 1.29001 6.58001V18.4C1.29265 19.8022 1.85084 21.1462 2.84233 22.1377C3.83383 23.1292 5.17782 23.6874 6.58001 23.69H18.4C19.8022 23.6874 21.1462 23.1292 22.1377 22.1377C23.1292 21.1462 23.6874 19.8022 23.69 18.4V6.58001C23.6874 5.17782 23.1292 3.83383 22.1377 2.84233C21.1462 1.85084 19.8022 1.29265 18.4 1.29001H6.58001Z" fill="white"/>
<path d="M19.58 14.1099C19.3197 13.7827 19.0392 13.4721 18.74 13.1799C18.6 13.0299 18.44 12.8799 18.39 12.8099V12.7599C19.3799 11.4451 20.206 10.0145 20.85 8.49994C20.901 8.34126 20.9115 8.17235 20.8806 8.00857C20.8496 7.84479 20.7783 7.69134 20.6729 7.56217C20.5676 7.43299 20.4317 7.33219 20.2775 7.26893C20.1233 7.20567 19.9557 7.18196 19.79 7.19994H17.94C17.6697 7.18198 17.4005 7.24959 17.1708 7.39319C16.941 7.53678 16.7623 7.74907 16.66 7.99994C16.0875 9.19831 15.3723 10.3231 14.53 11.3499V8.34994C14.53 8.00994 14.53 7.09994 13.46 7.09994H10.46C10.3324 7.09178 10.2046 7.10972 10.0842 7.15266C9.96378 7.1956 9.85341 7.26264 9.75982 7.34969C9.66622 7.43674 9.59136 7.54196 9.53981 7.65892C9.48826 7.77588 9.4611 7.90213 9.46 8.02994C9.47065 8.34513 9.59911 8.64486 9.82 8.86994C9.94333 9.00333 10.0366 9.16162 10.0935 9.33413C10.1505 9.50664 10.1697 9.68936 10.15 9.86994V12.1499C9.23527 10.9491 8.53496 9.59927 8.08 8.15994C8.01503 7.83884 7.83467 7.55266 7.57303 7.35551C7.31138 7.15835 6.98657 7.06388 6.66 7.08994H4.79C4.64745 7.0859 4.50555 7.11066 4.37279 7.16275C4.24004 7.21484 4.11916 7.29318 4.01739 7.39308C3.91562 7.49298 3.83506 7.61239 3.78052 7.74416C3.72599 7.87592 3.6986 8.01734 3.7 8.15994C3.7 8.73994 4.25 11.1599 6.7 14.4299C7.34996 15.4204 8.21942 16.2478 9.2409 16.8479C10.2624 17.4479 11.4084 17.8045 12.59 17.8899C13.24 17.8899 14.59 17.8899 14.59 16.6199V15.1399C14.9992 15.3721 15.373 15.6617 15.7 15.9999C16.11 16.3999 16.39 16.7099 16.62 16.9999C17.09 17.5299 17.43 17.9099 18.15 17.9099H20.25C20.3874 17.9103 20.5234 17.8823 20.6496 17.8277C20.7757 17.7731 20.8892 17.6932 20.9831 17.5928C21.0769 17.4923 21.149 17.3737 21.195 17.2442C21.2409 17.1146 21.2596 16.977 21.25 16.8399C21.28 16.3999 21.09 15.7099 19.58 14.1099ZM18.15 16.6599C18.01 16.6599 17.98 16.6599 17.54 16.1699C17.31 15.9199 17 15.5699 16.54 15.1699C15.38 14.0199 14.79 13.8599 14.34 13.8599C13.89 13.8599 13.34 14.2299 13.34 15.0499V16.5999C13.0867 16.6513 12.8282 16.6714 12.57 16.6599C11.5782 16.5681 10.6206 16.2499 9.77114 15.7297C8.92164 15.2096 8.20281 14.5015 7.67 13.6599C6.41673 12.086 5.50718 10.2669 5 8.31994H6.82C6.8603 8.39339 6.89377 8.47038 6.92 8.54994C7.63 10.6199 9.26 13.6899 10.53 13.6899C11.42 13.6899 11.42 12.7599 11.42 12.3599V9.80994C11.4412 9.28135 11.2941 8.75966 11 8.31994H13.3V11.7999C13.3 12.7999 13.91 12.9599 14.18 12.9599C14.4345 12.93 14.6795 12.8457 14.8986 12.7129C15.1177 12.58 15.3058 12.4017 15.45 12.1899C16.3802 11.0727 17.1663 9.84311 17.79 8.52994V8.43994H19.6C18.965 9.68678 18.2257 10.8777 17.39 11.9999C17.2055 12.2131 17.1082 12.488 17.1175 12.7697C17.1267 13.0515 17.2419 13.3194 17.44 13.5199C17.54 13.6499 17.69 13.7899 17.87 13.9799C18.1399 14.2409 18.3937 14.5181 18.63 14.8099V14.8599C19.1812 15.3817 19.6439 15.9896 20 16.6599H18.15Z" fill="white"/>
</g>
<defs>
<clipPath id="clip0_134_2334">
<rect width="24.98" height="24.98" fill="white"/>
</clipPath>
</defs>
</svg>
